<?xml version="1.0" standalone="no"?>
<!DOCTYPE svg PUBLIC "-//W3C//DTD SVG 20010904//EN"
 "http://www.w3.org/TR/2001/REC-SVG-20010904/DTD/svg10.dtd">
<svg version="1.0" xmlns="http://www.w3.org/2000/svg"
 width="225.000000pt" height="225.000000pt" viewBox="0 0 225.000000 225.000000"
 preserveAspectRatio="xMidYMid meet">

<g transform="translate(0.000000,225.000000) scale(0.100000,-0.100000)"
fill="#000000" stroke="none">
<path d="M1098 2103 c-35 -9 -824 -455 -841 -475 -16 -19 -17 -57 -17 -502 0
-441 2 -483 18 -502 9 -12 199 -124 422 -249 341 -192 411 -228 445 -228 34 0
104 36 445 228 223 125 413 237 422 249 16 19 18 61 18 501 0 440 -2 482 -18
502 -20 25 -815 469 -852 476 -14 3 -33 3 -42 0z m187 -338 c81 -21 188 -75
257 -130 50 -40 148 -155 148 -174 0 -3 -64 -42 -141 -87 l-141 -80 -50 52
c-68 72 -130 98 -233 99 -98 0 -158 -25 -227 -92 -67 -66 -92 -128 -93 -228 0
-132 54 -225 167 -286 58 -32 70 -34 153 -34 83 0 95 2 153 34 58 31 98 67
120 108 8 13 32 3 156 -64 l146 -80 -31 -46 c-81 -123 -247 -238 -391 -272
-81 -19 -225 -19 -306 0 -119 28 -208 80 -307 180 -142 141 -195 267 -195 460
0 158 40 278 134 402 82 109 222 202 356 237 74 20 250 20 325 1z m265 -543
l0 -47 45 3 45 4 0 -57 0 -57 -45 4 -45 3 0 -47 0 -48 -50 0 -50 0 0 48 0 47
-45 -3 -45 -4 0 57 0 57 45 -4 45 -3 0 47 0 48 50 0 50 0 0 -48z m330 0 l0
-47 45 3 45 4 0 -57 0 -57 -45 4 -45 3 0 -47 0 -48 -50 0 -50 0 0 48 0 47 -47
0 -48 0 0 50 0 50 48 0 47 0 0 48 0 47 50 0 50 0 0 -48z"/>
</g>
</svg>
