<?xml version="1.0" standalone="no"?>
<!DOCTYPE svg PUBLIC "-//W3C//DTD SVG 20010904//EN"
 "http://www.w3.org/TR/2001/REC-SVG-20010904/DTD/svg10.dtd">
<svg version="1.0" xmlns="http://www.w3.org/2000/svg"
 width="328.000000pt" height="154.000000pt" viewBox="0 0 328.000000 154.000000"
 preserveAspectRatio="xMidYMid meet">

<g transform="translate(0.000000,154.000000) scale(0.100000,-0.100000)"
fill="#000000" stroke="none">
<path d="M1795 1440 c-12 -88 -42 -128 -150 -201 -180 -120 -237 -250 -165
-375 25 -44 72 -92 117 -118 6 -3 -6 21 -29 54 -75 112 -95 202 -60 262 9 16
58 57 107 90 159 108 206 166 204 255 0 26 -4 57 -8 68 -6 15 -10 7 -16 -35z"/>
<path d="M1824 1170 c-64 -32 -137 -97 -162 -145 -27 -53 -21 -103 21 -171 23
-37 41 -81 46 -110 l7 -49 17 51 c20 58 17 84 -19 156 -13 26 -24 63 -24 82 0
50 53 122 128 173 74 50 69 55 -14 13z"/>
<path d="M2094 670 c64 -57 55 -103 -35 -184 -55 -50 -38 -51 39 -2 103 65
111 163 16 202 -52 22 -58 17 -20 -16z"/>
<path d="M1295 669 c-51 -21 -94 -54 -83 -64 31 -31 309 -56 474 -43 100 8
213 36 248 61 15 11 -1 10 -70 -4 -102 -21 -446 -36 -508 -22 -22 5 -44 17
-50 26 -9 15 -6 23 19 43 36 29 34 29 -30 3z"/>
<path d="M1335 500 c-15 -24 5 -57 45 -75 34 -15 57 -17 172 -12 73 4 162 12
198 19 63 13 61 13 -100 14 -183 1 -272 15 -294 45 -9 14 -16 17 -21 9z"/>
<path d="M1350 342 c0 -17 33 -53 63 -70 47 -25 290 -25 364 1 70 25 77 39 11
21 -67 -17 -226 -18 -300 0 -31 7 -73 23 -93 34 -40 24 -45 26 -45 14z"/>
<path d="M1185 243 c-87 -26 -107 -60 -54 -92 124 -76 727 -68 911 11 26 11
53 27 60 36 11 13 10 14 -7 5 -29 -15 -174 -41 -294 -53 -199 -19 -521 -8
-585 21 -34 16 -33 32 5 63 35 30 33 30 -36 9z"/>
<path d="M2025 99 c-118 -32 -278 -49 -463 -50 -198 -2 -179 -13 43 -25 87 -5
160 -3 220 6 92 13 220 49 265 75 31 18 23 17 -65 -6z"/>
</g>
</svg>
